<svg id="Layer_1" data-name="Layer 1" xmlns="http://www.w3.org/2000/svg" xmlns:xlink="http://www.w3.org/1999/xlink" viewBox="0 0 178 167"><defs><style>.cls-1{fill:none;}.cls-2{clip-path:url(#clip-path);}.cls-3{clip-path:url(#clip-path-2);}.cls-4{clip-path:url(#clip-path-3);}.cls-5{clip-path:url(#clip-path-4);}.cls-6{clip-path:url(#clip-path-5);}.cls-7{clip-path:url(#clip-path-6);}.cls-8{clip-path:url(#clip-path-7);}.cls-11,.cls-13,.cls-9{fill:#4b1c1b;}.cls-9{opacity:0.43;}.cls-10{clip-path:url(#clip-path-8);}.cls-11{opacity:0.14;}.cls-12{clip-path:url(#clip-path-10);}.cls-13{opacity:0.13;}.cls-14{clip-path:url(#clip-path-11);}.cls-15{clip-path:url(#clip-path-12);}.cls-16{clip-path:url(#clip-path-13);}</style><clipPath id="clip-path"><circle class="cls-1" cx="1187.5" cy="-1951.5" r="274.5"/></clipPath><clipPath id="clip-path-2"><ellipse class="cls-1" cx="1297.5" cy="-2147" rx="164.5" ry="161"/></clipPath><clipPath id="clip-path-3"><ellipse class="cls-1" cx="960" cy="-1811" rx="120" ry="117"/></clipPath><clipPath id="clip-path-4"><circle class="cls-1" cx="-179" cy="82" r="114"/></clipPath><clipPath id="clip-path-5"><circle class="cls-1" cx="1059.5" cy="-1983.5" r="274.5"/></clipPath><clipPath id="clip-path-6"><ellipse class="cls-1" cx="149.08" cy="21.21" rx="49.26" ry="48.21"/></clipPath><clipPath id="clip-path-7"><rect class="cls-1" x="-253.21" y="0.55" width="431.19" height="1554.37"/></clipPath><clipPath id="clip-path-8"><ellipse class="cls-1" cx="48.02" cy="121.82" rx="35.93" ry="35.03"/></clipPath><clipPath id="clip-path-10"><circle class="cls-1" cx="86.19" cy="78.55" r="82.19"/></clipPath><clipPath id="clip-path-11"><ellipse class="cls-1" cx="747.5" cy="-2398" rx="164.5" ry="161"/></clipPath><clipPath id="clip-path-12"><ellipse class="cls-1" cx="410" cy="-2062" rx="120" ry="117"/></clipPath><clipPath id="clip-path-13"><circle class="cls-1" cx="537.5" cy="-2206.5" r="274.5"/></clipPath></defs><title>reeses-bgArtboard 2 copy</title><g class="cls-7"><g class="cls-8"><rect class="cls-9" x="98.32" y="-28.5" width="101.51" height="99.41"/></g></g><g class="cls-10"><g class="cls-8"><rect class="cls-11" x="10.59" y="85.29" width="74.86" height="73.06"/></g></g><g class="cls-12"><rect class="cls-13" x="2.5" y="-5.14" width="167.38" height="167.38"/><rect class="cls-1" x="-283.16" y="-0.65" width="431.19" height="1554.37"/></g><g class="cls-16"><rect class="cls-1" x="-696" y="-2471" width="1440" height="5191"/></g><g class="cls-16"><rect class="cls-1" x="-696" y="-2471" width="1440" height="5191"/></g></svg>