<svg id="Layer_1" data-name="Layer 1" xmlns="http://www.w3.org/2000/svg" xmlns:xlink="http://www.w3.org/1999/xlink" viewBox="0 0 170 170"><defs><style>.cls-1,.cls-9{fill:none;}.cls-2{clip-path:url(#clip-path);}.cls-3{clip-path:url(#clip-path-2);}.cls-4{fill:#f96a00;}.cls-5{clip-path:url(#clip-path-3);}.cls-6{fill:#ffcb00;opacity:0.85;}.cls-7{clip-path:url(#clip-path-5);}.cls-8{fill:#4b1c1b;opacity:0.91;}.cls-9{stroke:#fafffc;stroke-linecap:round;stroke-linejoin:round;stroke-width:6px;}</style><clipPath id="clip-path"><circle class="cls-1" cx="73.5" cy="85" r="71.5"/></clipPath><clipPath id="clip-path-2"><rect class="cls-1" x="-804" y="-3148.5" width="1440" height="5191"/></clipPath><clipPath id="clip-path-3"><ellipse class="cls-1" cx="120.5" cy="60" rx="47.5" ry="46.5"/></clipPath><clipPath id="clip-path-5"><ellipse class="cls-1" cx="36" cy="128" rx="26" ry="25.5"/></clipPath></defs><title>miniature-iconArtboard 5</title><g class="cls-2"><g class="cls-3"><rect class="cls-4" x="-3" y="8.5" width="153" height="153"/></g></g><g class="cls-5"><g class="cls-3"><rect class="cls-6" x="68" y="8.5" width="105" height="103"/></g></g><g class="cls-7"><g class="cls-3"><rect class="cls-8" x="5" y="97.5" width="62" height="61"/></g></g><path class="cls-9" d="M17.48,79.5l22.76,47.32a28.81,28.81,0,0,1,2.52,7.92c.07,1,4.22,1.62,10.89,1.81s15.82,0,25.91-.74c20.19-1.41,36.44-4.18,36.3-6.18a28.53,28.53,0,0,1,1.39-8.19l15.95-50"/><path class="cls-9" d="M35,94.56l13.62,28.31.63,1.37a5.21,5.21,0,0,0,4.63,3.15h0c3.32.1,7.2.08,11.43,0"/><line class="cls-9" x1="108.41" y1="118.67" x2="118.71" y2="86.36"/><path class="cls-9" d="M27.66,83.13c3.65.11,7.91-2.26,12.21-2.23,3.78,0,7.65,2.47,11.84,2.4,3.85-.07,7.88-2.64,12-2.81,3.9-.17,8,2.06,12.1,1.78s7.84-3.07,11.72-3.45c4.11-.4,8.46,1.59,12.29,1.11,4.16-.51,7.65-3.47,11.39-4,4.25-.63,8.8,1.13,12.4.51,4.51-.78,9.61-4.38,9.58-4.76l-.11-1.51v0c.1-.94-.91-1.7-2.19-1.41A34,34,0,0,1,122.69,70c-3.65-.12-7.4-2.66-11.7-2.69-3.78,0-7.93,2.45-12.12,2.52-3.86.06-7.84-2.28-12-2.1-3.9.16-7.8,2.83-11.88,3.12S66.7,69,62.82,69.39c-4.12.4-7.74,3.27-11.56,3.75-4.16.51-8.61-1.36-12.36-.81C34.65,73,31.29,76,27.69,76.62a33.85,33.85,0,0,1-8.3-.1c-1.31-.11-2.19.77-2,1.7h0l.11,1.51C17.54,80.12,23.09,83,27.66,83.13Z"/></svg>